<svg viewBox="0 0 60.013 60.013" xml:space="preserve" xmlns="http://www.w3.org/2000/svg" enable-background="new 0 0 60.013 60.013"><path d="m11.68 13.006-.832-5h-2.99c-.447-1.72-1.999-3-3.858-3-2.206 0-4 1.794-4 4s1.794 4 4 4c1.859 0 3.411-1.28 3.858-3h1.294l.5 3h-.037l5.17 26.016c-2.465.188-4.518 2.086-4.76 4.474A5.01 5.01 0 0 0 15 49.006h2c0 3.309 2.691 6 6 6s6-2.691 6-6h11c0 3.309 2.691 6 6 6s6-2.691 6-6h4a1 1 0 1 0 0-2h-4.35c-.826-2.327-3.043-4-5.65-4s-4.824 1.673-5.65 4h-11.7c-.826-2.327-3.043-4-5.65-4s-4.824 1.673-5.65 4H15a3.01 3.01 0 0 1-2.224-.993 2.968 2.968 0 0 1-.761-2.316c.152-1.509 1.546-2.69 3.173-2.69h.841l38.995-.013a4.993 4.993 0 0 0 4.988-4.987V12.994l-48.332.012zm-7.68-2c-1.103 0-2-.897-2-2s.897-2 2-2 2 .897 2 2-.897 2-2 2zm42 34c2.206 0 4 1.794 4 4s-1.794 4-4 4-4-1.794-4-4 1.794-4 4-4zm-23 0c2.206 0 4 1.794 4 4s-1.794 4-4 4-4-1.794-4-4 1.794-4 4-4zm32.024-6.012-38.204.011-.238-1.199a.981.981 0 0 0 .43-.8.986.986 0 0 0-.779-.955l-.852-4.286a.984.984 0 0 0 .631.242 1 1 0 0 0 0-2 .99.99 0 0 0-.873.539l-1.54-7.751a.981.981 0 0 0 .414-.789.986.986 0 0 0-.76-.951l-.85-4.276c.17.134.376.227.609.227a1 1 0 0 0 0-2 .988.988 0 0 0-.859.518l-.103-.518 45.962-.013v3.013a1 1 0 0 0 0 2v4a1 1 0 0 0 0 2v4a1 1 0 0 0 0 2v4a1 1 0 0 0-1 1c0 .322.162.596.399.779a2.977 2.977 0 0 1-2.387 1.209z" fill="#083c8a" class="fill-000000"></path><circle cx="34.012" cy="19.006" r="1" fill="#083c8a" class="fill-000000"></circle><circle cx="37.012" cy="16.006" r="1" fill="#083c8a" class="fill-000000"></circle><circle cx="37.012" cy="22.006" r="1" fill="#083c8a" class="fill-000000"></circle><circle cx="40.012" cy="19.006" r="1" fill="#083c8a" class="fill-000000"></circle><circle cx="28.012" cy="19.006" r="1" fill="#083c8a" class="fill-000000"></circle><circle cx="31.012" cy="16.006" r="1" fill="#083c8a" class="fill-000000"></circle><circle cx="31.012" cy="22.006" r="1" fill="#083c8a" class="fill-000000"></circle><circle cx="16.012" cy="19.006" r="1" fill="#083c8a" class="fill-000000"></circle><circle cx="22.012" cy="19.006" r="1" fill="#083c8a" class="fill-000000"></circle><circle cx="19.012" cy="16.006" r="1" fill="#083c8a" class="fill-000000"></circle><circle cx="25.012" cy="16.006" r="1" fill="#083c8a" class="fill-000000"></circle><circle cx="19.012" cy="22.006" r="1" fill="#083c8a" class="fill-000000"></circle><circle cx="25.012" cy="22.006" r="1" fill="#083c8a" class="fill-000000"></circle><circle cx="43.012" cy="16.006" r="1" fill="#083c8a" class="fill-000000"></circle><circle cx="43.012" cy="22.006" r="1" fill="#083c8a" class="fill-000000"></circle><circle cx="46.012" cy="19.006" r="1" fill="#083c8a" class="fill-000000"></circle><circle cx="52.012" cy="19.006" r="1" fill="#083c8a" class="fill-000000"></circle><circle cx="34.012" cy="25.006" r="1" fill="#083c8a" class="fill-000000"></circle><circle cx="40.012" cy="25.006" r="1" fill="#083c8a" class="fill-000000"></circle><circle cx="28.012" cy="25.006" r="1" fill="#083c8a" class="fill-000000"></circle><circle cx="16.012" cy="25.006" r="1" fill="#083c8a" class="fill-000000"></circle><circle cx="22.012" cy="25.006" r="1" fill="#083c8a" class="fill-000000"></circle><circle cx="46.012" cy="25.006" r="1" fill="#083c8a" class="fill-000000"></circle><circle cx="52.012" cy="25.006" r="1" fill="#083c8a" class="fill-000000"></circle><circle cx="49.012" cy="16.006" r="1" fill="#083c8a" class="fill-000000"></circle><circle cx="55.012" cy="16.006" r="1" fill="#083c8a" class="fill-000000"></circle><circle cx="49.012" cy="22.006" r="1" fill="#083c8a" class="fill-000000"></circle><circle cx="55.012" cy="22.006" r="1" fill="#083c8a" class="fill-000000"></circle><circle cx="34.012" cy="31.006" r="1" fill="#083c8a" class="fill-000000"></circle><circle cx="37.012" cy="28.006" r="1" fill="#083c8a" class="fill-000000"></circle><circle cx="37.012" cy="34.006" r="1" fill="#083c8a" class="fill-000000"></circle><circle cx="40.012" cy="31.006" r="1" fill="#083c8a" class="fill-000000"></circle><circle cx="28.012" cy="31.006" r="1" fill="#083c8a" class="fill-000000"></circle><circle cx="31.012" cy="28.006" r="1" fill="#083c8a" class="fill-000000"></circle><circle cx="31.012" cy="34.006" r="1" fill="#083c8a" class="fill-000000"></circle><circle cx="22.012" cy="31.006" r="1" fill="#083c8a" class="fill-000000"></circle><circle cx="19.012" cy="28.006" r="1" fill="#083c8a" class="fill-000000"></circle><circle cx="25.012" cy="28.006" r="1" fill="#083c8a" class="fill-000000"></circle><circle cx="19.012" cy="34.006" r="1" fill="#083c8a" class="fill-000000"></circle><circle cx="25.012" cy="34.006" r="1" fill="#083c8a" class="fill-000000"></circle><circle cx="43.012" cy="28.006" r="1" fill="#083c8a" class="fill-000000"></circle><circle cx="43.012" cy="34.006" r="1" fill="#083c8a" class="fill-000000"></circle><circle cx="46.012" cy="31.006" r="1" fill="#083c8a" class="fill-000000"></circle><circle cx="52.012" cy="31.006" r="1" fill="#083c8a" class="fill-000000"></circle><circle cx="34.012" cy="37.006" r="1" fill="#083c8a" class="fill-000000"></circle><circle cx="40.012" cy="37.006" r="1" fill="#083c8a" class="fill-000000"></circle><circle cx="28.012" cy="37.006" r="1" fill="#083c8a" class="fill-000000"></circle><circle cx="22.012" cy="37.006" r="1" fill="#083c8a" class="fill-000000"></circle><circle cx="46.012" cy="37.006" r="1" fill="#083c8a" class="fill-000000"></circle><circle cx="52.012" cy="37.006" r="1" fill="#083c8a" class="fill-000000"></circle><circle cx="49.012" cy="28.006" r="1" fill="#083c8a" class="fill-000000"></circle><circle cx="55.012" cy="28.006" r="1" fill="#083c8a" class="fill-000000"></circle><circle cx="49.012" cy="34.006" r="1" fill="#083c8a" class="fill-000000"></circle><circle cx="55.012" cy="34.006" r="1" fill="#083c8a" class="fill-000000"></circle></svg>