<svg fill="none" viewBox="0 0 128 128" xmlns="http://www.w3.org/2000/svg"><path clip-rule="evenodd" d="M64.031 88.415a2 2 0 0 1 2 2v17.449a2 2 0 1 1-4 0V90.415a2 2 0 0 1 2-2Z" fill="#083c8a" fill-rule="evenodd" class="fill-000000"></path><path clip-rule="evenodd" d="M65.271 16.16a2 2 0 0 1-1.74 2.23 34.972 34.972 0 0 0-8.86 2.302c-17.88 7.238-26.508 27.601-19.27 45.482 7.238 17.881 27.601 26.51 45.482 19.271a34.937 34.937 0 0 0 8.65-5.038 2 2 0 1 1 2.49 3.13 38.937 38.937 0 0 1-9.639 5.616c-19.929 8.067-42.624-1.549-50.69-21.478-8.068-19.929 1.548-42.624 21.477-50.69a38.979 38.979 0 0 1 9.87-2.565 2 2 0 0 1 2.23 1.74Z" fill="#083c8a" fill-rule="evenodd" class="fill-000000"></path><path clip-rule="evenodd" d="M50.975 15.362a2 2 0 0 1 2.688.88l35.75 70.579a2 2 0 0 1-3.568 1.807L50.095 18.05a2 2 0 0 1 .88-2.688Z" fill="#083c8a" fill-rule="evenodd" class="fill-000000"></path><path d="M97.16 53.861c0 16.302-13.215 29.518-29.516 29.518-16.302 0-29.518-13.216-29.518-29.518 0-16.301 13.216-29.517 29.518-29.517 16.301 0 29.517 13.215 29.517 29.517Z" fill="#ffffff" class="fill-ffffff"></path><path clip-rule="evenodd" d="M99.16 53.861c0 17.407-14.11 31.518-31.516 31.518-17.407 0-31.518-14.111-31.518-31.518 0-17.406 14.111-31.517 31.518-31.517 17.406 0 31.517 14.11 31.517 31.517ZM67.645 83.38c16.301 0 29.517-13.216 29.517-29.518 0-16.301-13.216-29.517-29.517-29.517-16.302 0-29.518 13.215-29.518 29.517S51.343 83.38 67.644 83.38Z" fill="#083c8a" fill-rule="evenodd" class="fill-000000"></path><path clip-rule="evenodd" d="M58.285 35.943a1 1 0 0 1 1.157-.252l8.309 3.707.04.02 4.346 2.172a1 1 0 0 1 .51 1.183l-2.429 8.053a1 1 0 0 1-.957.712h-4.437l.352 2.045 4.541 2.328a1 1 0 0 1 .295 1.551l-5.375 6.108v3.585a1 1 0 0 1-.348.758l-4.602 3.963a1 1 0 0 1-1.238.053l-4.57-3.301-5.208-3.175a1 1 0 0 1-.439-.573l-1.534-5.241a1 1 0 0 1 .057-.71l2.236-4.708-2.254-5.34a1 1 0 0 1 .034-.85l3.45-6.646a.986.986 0 0 1 .072-.117l2.174-3.068a1 1 0 0 1 .816-.422h3.383l1.619-1.835Zm1.013 1.874-1.43 1.622a1 1 0 0 1-.75.339H53.8l-1.835 2.59-3.203 6.168 2.246 5.32a1 1 0 0 1-.018.818l-2.265 4.769 1.318 4.504 4.91 2.994a.998.998 0 0 1 .065.043l3.962 2.861 3.657-3.148v-3.504a1 1 0 0 1 .249-.66l4.776-5.428-3.843-1.97a1 1 0 0 1-.529-.72l-.639-3.707a1 1 0 0 1 .986-1.17h4.881l1.971-6.536-3.573-1.786-7.618-3.399ZM90.44 47.771a1 1 0 0 1 .495.863v7.072c0 .144-.03.285-.09.416l-2.37 5.182v5.01a1 1 0 0 1-.552.894l-7.072 3.536a1 1 0 0 1-1.429-.703l-1.076-5.535a1.001 1.001 0 0 1 .051-.557l1.892-4.803-.867-4.48a1 1 0 0 1 .11-.678l2.151-3.844a1 1 0 0 1 .749-.503l4.724-.591 2.289-1.287a1 1 0 0 1 .995.008Zm-1.505 2.573-.97.545a1 1 0 0 1-.366.121l-4.418.552-1.726 3.084.853 4.406a1 1 0 0 1-.052.556l-1.891 4.803.769 3.956 5.341-2.671v-4.61a1 1 0 0 1 .09-.415l2.37-5.183v-5.144Z" fill="#083c8a" fill-rule="evenodd" class="fill-000000"></path><path d="M63.741 101.7c-9.426 0-17.068 3.795-17.068 8.476h34.136c0-4.681-7.641-8.476-17.068-8.476Z" fill="#ffffff" class="fill-ffffff"></path><path clip-rule="evenodd" d="M46.673 112.176a2 2 0 0 1-2-2c0-3.513 2.813-6.148 6.11-7.785 3.42-1.698 8.004-2.69 12.958-2.69 4.955 0 9.539.992 12.959 2.69 3.296 1.637 6.11 4.272 6.11 7.785a2 2 0 0 1-2 2H46.672Zm33.658-4c-1.81-3.716-8.55-6.476-16.59-6.476-8.039 0-14.78 2.76-16.59 6.476a4.536 4.536 0 0 0-.478 2h34.136c0-.689-.165-1.358-.478-2Z" fill="#083c8a" fill-rule="evenodd" class="fill-000000"></path><path d="M41.97 112.134c0-.529.43-.958.958-.958h42.206a.958.958 0 0 1 0 1.916H42.928a.958.958 0 0 1-.958-.958Z" fill="#083c8a" class="fill-000000"></path><path clip-rule="evenodd" d="M85.134 113.092a.958.958 0 0 0 0-1.916H42.928a.958.958 0 0 0 0 1.916h42.206Zm-42.206-3.916h42.206a2.958 2.958 0 0 1 0 5.916H42.928a2.958 2.958 0 1 1 0-5.916Z" fill="#083c8a" fill-rule="evenodd" class="fill-000000"></path></svg>